# xmcd CD database file
#
# Track frame offsets:
#	150
#	25243
#	44267
#	58804
#	83160
#	108918
#	142968
#	158737
#	180038
#	206720
#	236360
#	259487
#	284714
#
# Disc length: 4296 seconds
#
# Revision: 0
# Processed by: cddbd v1.5.2PL0 Copyright (c) Steve Scherf et al.
# Submitted via: CDex 1.99.1
#
DISCID=b110c60d
DTITLE=Ultraviolet Blues Band - Un-Solid State Blues
DYEAR=2013
DGENRE=Blues
TTITLE0=Friends Coming Over
TTITLE1=Somenights
TTITLE2=My Girl's Love
TTITLE3=What I Need
TTITLE4=Riverflow
TTITLE5=Shelby Street
TTITLE6=The Memorial Blues
TTITLE7=Cocaine Blues
TTITLE8=Un-Solid State Blues
TTITLE9=Long Highway
TTITLE10=Broadway Rag
TTITLE11=Fateful Day Blues
TTITLE12=At the Saw
EXTD=YEAR: 2013
EXTT0=
EXTT1=
EXTT2=
EXTT3=
EXTT4=
EXTT5=
EXTT6=
EXTT7=
EXTT8=
EXTT9=
EXTT10=
EXTT11=
EXTT12=
PLAYORDER=
